Coordinates														
version=1														
nRows=68														
nColumns=15														
inDegrees=yes														
														
"Units are S.I. units (second, meters, Newtons, ...)"														
"If the header above contains a line with 'inDegrees', this indicates whether rotational values are in degrees (yes) or radians (no)."														
														
endheader														
time	/jointset/hip_l/hip_flexion_l/value	/jointset/hip_l/hip_adduction_l/value	/jointset/hip_l/hip_rotation_l/value	/jointset/hip_r/hip_flexion_r/value	/jointset/hip_r/hip_adduction_r/value	/jointset/hip_r/hip_rotation_r/value	/jointset/walker_knee_l/knee_angle_l/value	/jointset/walker_knee_r/knee_angle_r/value	/jointset/ankle_l/ankle_angle_l/value	/jointset/ankle_r/ankle_angle_r/value	/jointset/subtalar_l/subtalar_angle_l/value	/jointset/subtalar_r/subtalar_angle_r/value	/jointset/mtp_l/mtp_angle_l/value	/jointset/mtp_r/mtp_angle_r/value
25.01	-25.79606911	-47.07839298	23.420678	41.26768488	0.59583825	2.00560408	11.33733628	132.1617581	36.83335819	-30.01370931	-10.08798271	-9.99226063	-6.37645017	-8.8472831
25.02	14.41572306	-28.33520935	-17.24199215	110.2184167	-8.37934393	32.29753166	74.36227309	38.75113587	36.15929356	-40.61635971	-17.52825081	15.62000915	-18.48404623	-30.73644876
25.03	102.3435105	18.40000097	-19.37477901	-14.90351778	-41.01938264	11.82271727	100.5581249	105.8621486	29.82212698	-16.74080158	0.95066715	17.28524136	-22.6379351	-25.90693665
25.04	87.59384302	16.41212344	-23.66074682	68.73679526	0.50520531	15.21799245	90.79695152	21.76977552	-11.18023412	-32.43228638	-33.81503816	1.90747125	4.4342393	-34.073309
25.05	77.88375135	7.96275563	13.38526403	72.80105468	7.31480636	-27.6142079	89.65617569	46.83766738	-33.147039	23.05370759	-0.92602636	14.97752077	-15.17521378	-4.91497308
25.06	52.587074	-39.28339163	10.10387923	1.23663222	-42.10295757	12.52220056	79.77061557	103.2417405	-6.82192966	-44.23246342	-27.21452408	12.06773701	-20.99283815	-3.4228022
25.07	95.00893679	-7.7261093	-6.77733714	112.0577497	-36.7613236	-1.51683462	21.82862188	99.68656482	14.52597984	-42.18260503	10.10144102	-27.84879495	-4.9803855	-15.43188746
25.08	63.62144095	-6.43209757	16.13203291	63.01463539	-25.50731644	-12.71240596	137.3908181	95.6282146	22.81269627	-3.61462726	6.60215173	-8.62811366	-22.96501274	-19.4925763
25.09	62.69683319	-16.61110392	-8.96754365	70.55801171	-20.68787761	-18.71559911	101.829263	134.9519353	-39.94959234	-30.65972601	14.95041633	-5.83978137	-39.78903322	-33.36493548
25.1	105.9747353	11.95718026	27.4608115	86.97077968	-34.79268572	22.78811937	97.15097273	10.28765766	-31.83619749	45.9091148	18.56756094	28.40458165	-5.21510035	4.52889904
25.11	8.75800713	-47.98484748	-8.67422347	38.04627984	-49.63609151	30.40487174	100.4148279	5.51198143	24.86094222	-32.37738804	26.29534659	2.22741369	-25.80438495	-22.33375126
25.12	114.4008489	0.12454095	-0.29621208	-1.74352551	-20.89277018	23.00326282	15.13840875	82.24021231	-17.51353818	0.7782456	-6.75974347	-34.34507076	-40.81248398	-8.56285516
25.13	60.46818458	-16.77552775	-8.75202086	-6.21942757	7.462845	19.11538022	46.29598877	63.73048604	-0.8221603	45.58341392	-26.01689054	-16.33498064	-24.0655307	-35.46160297
25.14	75.9284132	-16.64220652	-22.15697311	71.06551295	-22.04201578	28.20317944	71.03060788	113.5211286	22.08769274	-11.6712451	0.58163377	-33.3947093	-8.10911686	-28.61459576
25.15	11.2214621	2.75356194	-18.40305629	68.97261432	-9.99021396	-30.41271581	9.98717121	79.40643418	-23.84514031	24.55019778	29.77562847	-29.16037032	-15.32759383	-24.58080398
25.16	8.94850579	4.77925554	22.71598355	111.9463579	9.25328036	-30.88142469	116.1456359	101.4591011	-23.14872768	-26.95002354	27.58650968	-22.20732172	-13.10051406	4.68385969
25.17	84.73813616	16.86568232	7.02896686	13.430618	15.69876456	11.36776416	114.8671939	14.9289983	-15.68214551	-21.83581843	-13.16197798	-8.89470071	-44.43267726	-2.94082838
25.18	27.6611399	5.47566245	21.92093637	35.98750819	-13.18835043	-30.677525	117.4288411	49.15146451	-29.2380686	-31.7177782	-2.03702667	18.30392615	0.69515264	-12.44175655
25.19	55.9502661	-2.13084959	-16.6876289	85.45560042	-27.1519052	6.91200808	90.47810477	135.0482855	-19.65276177	36.90776192	8.77637866	12.39654935	1.56555628	-22.87122899
25.2	80.17683951	-19.71935276	16.48060061	-15.47202335	-29.40851195	-14.66586999	91.99172457	13.73005218	-27.33093817	23.13079552	-4.58792058	-9.39375765	-22.62673795	-14.6362766
25.21	64.14507423	-38.13566378	-30.2463795	25.16712447	-15.10892219	-14.58020215	106.6848873	131.062958	-49.43281264	-36.50182183	-7.73304394	-0.45879843	-43.40126674	-42.42778729
25.22	10.35068053	-45.8120649	11.29813089	84.11062597	-31.11768668	-22.01934323	0.85790984	42.80007265	21.65683851	8.86512218	15.78661373	23.00711586	-21.03469517	-34.2932254
25.23	6.26629865	-4.4554391	-10.44364687	84.19060514	17.50610365	-19.22386193	0.95975163	105.6038881	24.59044815	-36.15674282	24.4543713	27.61291375	-28.96008858	0.93662638
25.24	48.28132847	-4.09325737	-9.08371441	91.38579956	-0.97379092	34.37751818	19.32429301	15.14743023	18.08949783	-32.96298928	-12.96220696	-6.69222513	-8.81900123	-28.43829717
25.25	60.89705276	-0.32570459	-9.13534923	63.93975663	11.29128315	-0.28124943	101.7766063	69.36031183	41.28067132	13.55098732	-15.57204738	14.16642633	0.65041723	-36.23653697
25.26	49.56326611	-8.85678305	-5.96501459	-2.91366427	18.18933665	-1.26998694	40.29394083	133.25103	-4.4016863	45.50336035	-26.48486204	-28.47958992	-31.46199604	-21.64491582
25.27	27.96003622	-21.10474883	24.68634494	4.46258077	-43.26639208	16.22863099	27.12389652	83.817243	48.36076804	-8.4343879	-20.76497932	2.87741217	-36.43570804	-43.82041225
25.28	18.95962669	10.60443248	-20.94385601	83.00795661	6.27764432	-9.75962047	72.783206	127.5802937	-37.76904443	-38.92027186	-1.1927554	11.54284064	0.56815285	-41.28585002
25.29	63.85665607	18.94758984	-7.06199939	20.37929439	-18.69069455	-38.20345252	116.3963958	29.11532545	-35.87490662	-31.81277987	13.49961157	-13.66561562	-27.38744659	-31.56891106
25.3	43.88738524	-6.95083358	-3.86028489	34.19785297	17.53757875	-18.39727352	64.58298475	93.28947978	-31.39811335	-48.35539022	-2.05420175	-25.71229722	-0.33059752	-24.29371971
25.31	64.62812919	8.8507424	-28.58750219	-0.52247879	-10.12511512	16.77478077	137.2758562	52.16241068	-35.19065206	-8.76072825	29.53948933	34.72918642	-13.27010541	1.19186738
25.32	27.72220462	-27.44285392	10.7237376	-17.904349	-9.48600795	11.15676465	94.70040236	21.74198299	47.05095535	-38.99612584	19.69481342	15.78005764	-30.27268458	-31.08082731
25.33	80.94377052	-21.75512274	13.9869713	48.00092986	18.03708809	-20.95994963	43.44980063	96.98736525	-26.70173965	-37.35101952	-4.52315134	8.69243268	0.23092307	-33.18215109
25.34	50.24969904	-11.47607707	18.05720258	-29.2970925	-21.13411011	26.23199184	88.51852722	90.40539916	-22.45725907	-2.88721453	28.54235972	-5.30738883	2.21779975	-31.34958376
25.35	81.45276553	3.69649788	-9.93108047	92.72309096	-10.94833047	31.20724678	15.90616469	105.8229235	-34.1872192	25.92664758	-27.31273896	-20.98156184	-8.42317979	-10.17197715
25.36	1.95346912	-44.39833479	-30.71210841	71.89664733	-38.71542383	32.05976286	124.4575617	95.88493754	12.40277107	-10.06139346	-22.77915257	-9.20350692	-34.34076576	-27.21088974
25.37	90.96136522	-42.42168703	7.59263836	49.94188552	15.20906711	-14.08801108	126.5553311	95.60026243	33.98703396	49.17788497	14.60800663	-18.98846334	-22.62220609	-42.10039493
25.38	33.87233765	-29.21409516	14.1201027	-19.39665968	-40.58716882	30.20103027	24.77198019	83.14558885	-43.6190764	-15.59673372	-24.57877738	26.01297722	-29.76497927	-21.88460814
25.39	68.15767585	-12.45467864	-3.84499234	70.33264174	-9.51947794	15.92156984	88.14395522	129.0829798	27.08787807	-45.35619633	18.76988254	26.59077922	-2.08517153	-3.71822928
25.4	74.07345359	-6.8381784	-11.26103816	-7.49573481	-27.53867824	-7.74113419	60.10786538	34.18391446	36.84775828	11.67494848	-5.06724805	-9.38909344	-17.85384996	-40.45421576
25.41	105.4124591	-49.29560539	30.75878368	-6.65985007	-47.44946305	29.28244489	29.35437383	44.85943349	-36.29128561	7.30859586	-14.73111299	-10.31552736	-37.00219337	-23.08857989
25.42	14.64219667	-44.61865869	-14.14243369	-22.52622723	-38.41721709	-23.54530201	60.39384064	81.64480162	-4.3927206	-28.14692569	-4.28604522	-19.09568222	-32.35048522	-33.70737936
25.43	60.8998748	-25.58491534	32.07340921	27.33451919	3.82871539	1.75871601	48.09128103	39.84293201	-3.80245034	27.50408544	29.10898242	-1.40692057	-32.96017226	-40.94660956
25.44	85.67099459	-40.41173067	-11.98314791	49.20251967	15.91179646	19.6607048	137.7672191	82.40560068	48.01415701	-9.90829774	32.13666363	33.35765046	-39.89310796	-1.04091534
25.45	34.731464	-21.97808461	-25.95467339	87.97485362	11.12415459	-20.60933351	60.60812401	123.2459628	11.24608967	8.0634105	-14.9851586	29.34430485	-0.65449384	-19.62367385
25.46	109.0222131	-10.26533194	-2.65215029	92.40496449	7.99831998	11.28872995	124.9402826	91.96701773	19.26251696	-18.11431077	21.7396298	-6.19656571	-44.17866028	-6.72158435
25.47	-15.30432772	-12.55382426	-34.58175238	46.89559443	15.10822832	27.35718258	66.65327241	20.75903786	-29.27686487	-7.38458055	-27.49602643	15.67699957	-42.26098168	-31.78765188
25.48	33.66101072	-17.28519157	6.36981702	-23.82972297	-6.85666079	7.52205179	71.25438085	67.38265266	-47.38398638	4.18495229	-1.18936737	14.11153581	0.01757655	-8.48070543
25.49	16.81435422	-11.4372573	0.35785129	85.84506734	15.5009575	-25.1238503	136.1744308	120.6538485	-6.22271502	47.42206004	21.19792519	-23.23493789	-43.28290361	1.86525763
25.5	25.32982805	1.24284236	12.95644594	-17.52812042	-22.41933852	-16.22994826	13.21062602	75.55355879	5.16087764	13.79604832	-18.03036461	-10.2173677	-5.15141118	-27.5439141
25.51	39.49675825	-29.06409663	10.96776162	84.45320344	-47.47111478	26.47701325	47.6530408	107.9583177	-48.07329383	36.75711509	2.46053603	-18.91071686	-31.32599763	-44.81839526
25.52	67.75466789	3.90475091	23.78112261	37.62995712	-13.1213746	26.92466639	86.92284408	129.4891953	19.63803884	-27.11375324	4.31306017	30.06548886	-26.70586555	3.36731543
25.53	-24.43342981	-35.13178265	-18.28872859	-27.67623229	-5.62956849	-10.99849163	134.3140674	95.9023686	-45.72502241	-49.98302805	-24.1827447	-19.04274534	-38.84399233	-27.49181973
25.54	73.06175351	-0.02483412	16.47252495	-26.10433045	2.75386373	-35.44342182	69.18809006	104.3863372	40.30048546	7.35813304	-25.80244051	-5.2908671	-40.29717108	-30.52216313
25.55	8.92778007	-40.55517903	-2.19263371	107.0415475	-9.94637175	-38.94404871	75.53069168	50.59739174	1.30204089	-12.95240026	-13.25410856	-29.18555427	-31.94651924	-44.42849191
25.56	38.15385601	-24.42862538	25.04592724	-6.54394806	1.27644531	14.54844693	68.5785357	46.65400566	-44.92968628	22.01145979	17.87350292	23.59367187	-0.92215138	-38.42101079
25.57	58.21326288	-17.01601425	12.31147472	96.32788197	-35.83872491	-23.66193762	33.43576021	54.18579266	7.74649736	-21.53257259	-34.88080778	5.34278637	-10.64523628	-35.16045085
25.58	22.57825312	-8.57616104	7.58136238	93.655644	-33.71014892	-0.84737001	107.7946213	129.3705097	32.62928054	18.00656111	-6.45267314	21.1973501	-30.90347341	-12.12426688
25.59	56.24419492	-6.82956142	-30.09442055	44.81170698	0.96143477	3.63576311	90.82719929	23.28215626	-3.62137114	31.34497405	-23.1430213	-24.39286357	-39.47638376	-35.02724848
25.6	-21.23347158	17.28858339	-27.46487468	107.7787706	-5.62621288	-38.10973497	105.9285006	15.2216527	44.76065209	-30.29261376	-33.47031242	2.9043071	4.4682429	-7.51655905
25.61	101.9346025	-31.42519266	-31.16491378	106.6573354	-16.04617467	-37.97400226	84.32085174	8.86360834	9.45420192	42.77755731	-6.00454436	-28.40837648	-15.56635863	-13.31450724
25.62	70.58275109	-15.0451637	-32.22319358	-7.70785898	-6.16074061	-3.00015509	122.5841909	13.10835984	-12.65072579	47.14293435	-3.86667326	-25.22645928	-14.30144591	-15.48681649
25.63	41.70508725	17.75074105	-15.81054956	-2.35271528	0.38117462	-6.8368842	43.80529293	9.81676548	10.0309961	30.33302124	-6.40240164	33.6227325	3.88972025	-12.80308269
25.64	111.5922244	-32.45078864	-9.43769739	109.1829826	-25.57132713	-29.25102014	97.63612036	82.49355537	23.46130927	31.86062086	15.96122638	9.46552226	-18.28089767	2.69891174
25.65	-15.61102491	-38.83950493	-12.01348096	72.81007975	-0.11700041	-17.29310009	63.89714803	75.72874143	-3.98497849	-35.09731162	13.9930404	-10.55395603	1.96620572	-16.44022046
25.66	31.29378434	-4.16254852	34.92698318	17.40143927	9.29666571	-12.47765195	34.81558169	124.2882661	14.98368978	14.87526923	34.76496845	-32.55349124	-38.63093828	-12.46668242
25.67	23.02190793	-45.74397283	33.34403206	-6.28888705	0.5337265	-35.71103285	38.58626373	124.8808801	11.67965299	35.73621579	13.16012932	-7.59862	-25.38887555	-25.68663922
25.68	86.47060387	-19.18347076	32.92737675	14.87634417	9.24156638	0.06814414	39.41203781	20.05311883	30.50008385	25.73606947	12.09787689	-13.82603338	-2.73456803	-34.57358238
